HIERARCHY
ROOT joint_0
{
	OFFSET 0.000000 0.000000 0.000000
	CHANNELS 6 Xposition Yposition Zposition Zrotation Yrotation Xrotation 
	JOINT joint_1
	{
		OFFSET 14.113007 -2.961990 123.953979
		CHANNELS 3 Zrotation Yrotation Xrotation
		JOINT joint_2
		{
			OFFSET 0.764000 -2.434006 113.871948
			CHANNELS 3 Zrotation Yrotation Xrotation
			JOINT joint_3
			{
				OFFSET 0.186996 -2.169998 113.753052
				CHANNELS 3 Zrotation Yrotation Xrotation
				JOINT joint_4
				{
					OFFSET 16.096001 -2.720001 160.853027
					CHANNELS 3 Zrotation Yrotation Xrotation
					JOINT joint_5
					{
						OFFSET 34.392006 -0.188995 92.567017
						CHANNELS 3 Zrotation Yrotation Xrotation
						End Site
						{
							OFFSET 0.000000 0.000000 0.000000
						}
					}
				}
				JOINT joint_6
				{
					OFFSET 9.183998 -36.684006 89.597046
					CHANNELS 3 Zrotation Yrotation Xrotation
					JOINT joint_7
					{
						OFFSET 0.486000 -164.365997 -28.984009
						CHANNELS 3 Zrotation Yrotation Xrotation
						JOINT joint_8
						{
							OFFSET 38.899002 -34.967010 -291.651978
							CHANNELS 3 Zrotation Yrotation Xrotation
							JOINT joint_9
							{
								OFFSET 41.714005 -45.890991 -258.857056
								CHANNELS 3 Zrotation Yrotation Xrotation
								End Site
								{
									OFFSET 0.000000 0.000000 0.000000
								}
							}
						}
					}
				}
				JOINT joint_10
				{
					OFFSET 8.867004 33.650002 90.817993
					CHANNELS 3 Zrotation Yrotation Xrotation
					JOINT joint_11
					{
						OFFSET 0.018997 164.299999 -29.368042
						CHANNELS 3 Zrotation Yrotation Xrotation
						JOINT joint_12
						{
							OFFSET 29.440994 30.887997 -293.216919
							CHANNELS 3 Zrotation Yrotation Xrotation
							JOINT joint_13
							{
								OFFSET 46.174011 54.490005 -256.422058
								CHANNELS 3 Zrotation Yrotation Xrotation
								End Site
								{
									OFFSET 0.000000 0.000000 0.000000
								}
							}
						}
					}
				}
			}
		}
	}
	JOINT joint_14
	{
		OFFSET -2.264000 -89.466995 -116.150024
		CHANNELS 3 Zrotation Yrotation Xrotation
		JOINT joint_15
		{
			OFFSET -16.400993 -17.452988 -493.781982
			CHANNELS 3 Zrotation Yrotation Xrotation
			JOINT joint_16
			{
				OFFSET -50.497004 -13.404022 -424.754013
				CHANNELS 3 Zrotation Yrotation Xrotation
				JOINT joint_17
				{
					OFFSET 198.546007 -19.341003 -89.309000
					CHANNELS 3 Zrotation Yrotation Xrotation
					End Site
					{
						OFFSET 0.000000 0.000000 0.000000
					}
				}
			}
		}
	}
	JOINT joint_18
	{
		OFFSET -0.867996 96.016006 -110.817993
		CHANNELS 3 Zrotation Yrotation Xrotation
		JOINT joint_19
		{
			OFFSET -10.130997 24.658998 -493.645020
			CHANNELS 3 Zrotation Yrotation Xrotation
			JOINT joint_20
			{
				OFFSET -48.871004 19.434999 -424.714005
				CHANNELS 3 Zrotation Yrotation Xrotation
				JOINT joint_21
				{
					OFFSET 195.579996 24.926001 -94.327003
					CHANNELS 3 Zrotation Yrotation Xrotation
					End Site
					{
						OFFSET 0.000000 0.000000 0.000000
					}
				}
			}
		}
	}
}
MOTION
Frames: 10
Frame Time: 0.016667
44.837000 -167.455000 1138.616940 -4.028652 -4.976881 -1.584791 0.834498 0.112152 1.394514 0.835243 -0.017283 -0.196345 0.835801 0.029201 0.221692 -0.222193 1.353753 0.583568 0.000000 0.000000 0.000000 0.036507 2.663844 -0.107703 -0.290952 2.722866 1.040469 -0.036091 3.326145 3.387256 0.000000 0.000000 0.000000 -5.093543 -0.191008 1.886930 0.355145 0.774495 -0.663468 0.193404 7.395454 -9.341518 0.000000 0.000000 0.000000 -2.286277 3.706594 -2.970212 -2.278034 0.472247 0.109189 -2.072385 -1.761791 -1.091912 0.000000 0.000000 0.000000 -2.096715 0.946230 5.288261 -2.011441 1.574858 -0.379271 -2.141291 -1.942639 -0.777131 0.000000 0.000000 0.000000 
45.225000 -167.578990 1138.583980 -3.977561 -4.808796 -1.581425 0.877121 0.165392 1.401209 0.877975 -0.024969 -0.192008 0.879053 0.045893 0.222598 -0.221159 1.152181 0.583304 0.000000 0.000000 0.000000 -0.194164 2.709731 -0.317344 -0.259665 2.723692 1.204225 -0.010020 3.265882 3.484484 0.000000 0.000000 0.000000 -5.061803 -0.219070 1.848836 0.331883 0.737108 -0.614037 0.151277 7.288320 -9.397164 0.000000 0.000000 0.000000 -2.303473 3.555056 -2.966465 -2.300476 0.459095 0.117270 -2.094111 -1.736839 -1.099199 0.000000 0.000000 0.000000 -2.116832 0.776137 5.302281 -2.022692 1.563812 -0.395647 -2.151461 -1.912180 -0.785953 0.000000 0.000000 0.000000 
45.671000 -167.753010 1138.600950 -3.887664 -4.527868 -1.581358 0.946969 0.292225 1.427309 0.947500 -0.047717 -0.185877 0.949667 0.070953 0.223421 -0.223126 0.794981 0.592387 0.000000 0.000000 0.000000 -0.595946 2.772604 -0.621401 -0.210430 2.708703 1.434723 0.034846 3.155875 3.643846 0.000000 0.000000 0.000000 -4.896094 -0.291800 1.810925 0.281533 0.626611 -0.578635 0.081621 7.122275 -9.474023 0.000000 0.000000 0.000000 -2.332910 3.286394 -2.948859 -2.338988 0.453593 0.121921 -2.130611 -1.729912 -1.114828 0.000000 0.000000 0.000000 -2.150363 0.460499 5.331956 -2.037782 1.589229 -0.426793 -2.169697 -1.896879 -0.796706 0.000000 0.000000 0.000000 
46.379000 -167.993000 1138.661010 -3.770487 -4.143014 -1.583487 1.036449 0.457762 1.460300 1.036321 -0.078585 -0.177666 1.039814 0.098222 0.222901 -0.227929 0.303476 0.608779 0.000000 0.000000 0.000000 -1.071035 2.874728 -0.983408 -0.152472 2.719073 1.698324 0.101732 2.981032 3.871222 0.000000 0.000000 0.000000 -4.635303 -0.368253 1.793177 0.208761 0.491646 -0.558730 -0.020015 6.880880 -9.605612 0.000000 0.000000 0.000000 -2.370368 2.930150 -2.919763 -2.387897 0.434692 0.124235 -2.177244 -1.732270 -1.135893 0.000000 0.000000 0.000000 -2.193856 0.039993 5.377312 -2.057528 1.615942 -0.472821 -2.194557 -1.889439 -0.809661 0.000000 0.000000 0.000000 
48.189000 -168.389010 1138.793950 -3.642749 -3.591527 -1.587639 1.134319 0.569939 1.462649 1.133823 -0.104191 -0.167470 1.138335 0.119983 0.224060 -0.236758 -0.348687 0.634056 0.000000 0.000000 0.000000 -1.317875 3.120888 -1.310275 -0.110735 2.917185 1.891952 0.218969 2.629434 4.230631 0.000000 0.000000 0.000000 -4.292698 -0.322331 1.894269 0.104641 0.458926 -0.591687 -0.196378 6.444971 -9.927226 0.000000 0.000000 0.000000 -2.408415 2.496883 -2.876087 -2.437150 0.331991 0.124992 -2.226754 -1.729670 -1.157832 0.000000 0.000000 0.000000 -2.244773 -0.455658 5.450807 -2.085844 1.547932 -0.544792 -2.225559 -1.881348 -0.825839 0.000000 0.000000 0.000000 
51.120000 -168.990010 1139.082030 -3.498200 -2.804949 -1.596585 1.240099 0.626330 1.418322 1.239373 -0.124680 -0.152476 1.244520 0.131940 0.223920 -0.252241 -1.314987 0.672503 0.000000 0.000000 0.000000 -1.172343 3.594589 -1.552873 -0.086164 3.416100 1.932378 0.452403 1.845318 4.856102 0.000000 0.000000 0.000000 -3.786621 -0.111963 2.146050 -0.052794 0.552525 -0.637888 -0.508449 5.656938 -10.598837 0.000000 0.000000 0.000000 -2.447274 1.922767 -2.804045 -2.487638 0.125103 0.118261 -2.282030 -1.707579 -1.180508 0.000000 0.000000 0.000000 -2.308627 -1.092238 5.575593 -2.126268 1.362127 -0.668286 -2.266786 -1.849385 -0.850117 0.000000 0.000000 0.000000 
55.153000 -169.748000 1139.442990 -3.344748 -1.858778 -1.604836 1.352209 0.646273 1.342302 1.350932 -0.137794 -0.132512 1.356044 0.121298 0.219328 -0.270835 -2.455244 0.710111 0.000000 0.000000 0.000000 -0.787863 4.221783 -1.712278 -0.068422 4.113236 1.889545 0.737141 0.846260 5.580806 0.000000 0.000000 0.000000 -3.177457 0.218556 2.464268 -0.231517 0.745607 -0.648498 -0.894556 4.686354 -11.482278 0.000000 0.000000 0.000000 -2.486355 1.279896 -2.717835 -2.537368 -0.168490 0.107768 -2.340438 -1.670431 -1.203116 0.000000 0.000000 0.000000 -2.377742 -1.794768 5.727674 -2.174549 1.076853 -0.817755 -2.313083 -1.804044 -0.878634 0.000000 0.000000 0.000000 
61.065000 -170.602010 1139.661010 -3.215309 -0.899082 -1.600342 1.457627 0.557980 1.236794 1.456538 -0.125740 -0.103569 1.460353 0.076413 0.207647 -0.288157 -3.343173 0.737315 0.000000 0.000000 0.000000 -0.331653 4.868697 -1.773098 -0.067703 4.845539 1.879233 0.909328 0.255198 6.068354 0.000000 0.000000 0.000000 -2.705823 0.668879 2.784158 -0.364404 1.093069 -0.659738 -1.216812 3.889393 -12.248292 0.000000 0.000000 0.000000 -2.519263 0.776156 -2.655895 -2.573409 -0.565765 0.108522 -2.388483 -1.628157 -1.220546 0.000000 0.000000 0.000000 -2.433184 -2.332023 5.848808 -2.223906 0.658906 -0.928061 -2.351275 -1.784572 -0.900218 0.000000 0.000000 0.000000 
69.272000 -171.578000 1139.652950 -3.136204 0.070333 -1.578229 1.553257 0.262351 1.070595 1.555434 -0.075211 -0.055812 1.556484 -0.005817 0.185954 -0.307801 -3.839125 0.770521 0.000000 0.000000 0.000000 0.214088 5.527088 -1.674991 -0.098612 5.607263 1.874981 0.923308 0.323571 6.318618 0.000000 0.000000 0.000000 -2.530928 1.304408 3.112226 -0.434590 1.692236 -0.691695 -1.451895 3.292484 -12.830906 0.000000 0.000000 0.000000 -2.535046 0.486434 -2.634550 -2.579045 -1.166722 0.132491 -2.413575 -1.568378 -1.225873 0.000000 0.000000 0.000000 -2.471129 -2.599458 5.922420 -2.281546 -0.030730 -0.963405 -2.378139 -1.781256 -0.914570 0.000000 0.000000 0.000000 
79.358000 -172.651000 1139.501950 -3.084095 1.057835 -1.546971 1.641734 -0.147945 0.872871 1.650490 -0.004887 0.003049 1.648206 -0.108978 0.158130 -0.325352 -4.083868 0.799337 0.000000 0.000000 0.000000 0.855866 6.200558 -1.435128 -0.144772 6.398912 1.860549 0.827895 0.824995 6.396123 0.000000 0.000000 0.000000 -2.500217 2.064059 3.396890 -0.467544 2.451280 -0.692649 -1.624046 2.849149 -13.267066 0.000000 0.000000 0.000000 -2.543156 0.330471 -2.632756 -2.568661 -1.874393 0.164440 -2.430183 -1.473955 -1.223727 0.000000 0.000000 0.000000 -2.493583 -2.704031 5.966334 -2.338042 -0.859747 -0.955150 -2.395420 -1.773049 -0.924899 0.000000 0.000000 0.000000 
